<?xml version="1.0" encoding="UTF-8"?>
<svg id="Camada_1" xmlns="http://www.w3.org/2000/svg" version="1.1" xmlns:xlink="http://www.w3.org/1999/xlink" viewBox="0 0 1920 1080">
  
  <defs>
    
    <linearGradient id="Gradiente_sem_nome_28" data-name="Gradiente sem nome 28" x1="761.68" y1="600.77" x2="1113.77" y2="600.77" gradientUnits="userSpaceOnUse">
      <stop offset="0" stop-color="#b9a784"></stop>
      <stop offset="1" stop-color="#baa885"></stop>
    </linearGradient>
    <linearGradient id="Gradiente_sem_nome_281" data-name="Gradiente sem nome 28" x1="895.84" y1="423.66" x2="979.61" y2="423.66" xlink:href="#Gradiente_sem_nome_28"></linearGradient>
  </defs>
  <g>
    <path class="st0" d="M1437.1,592.52c0,77.04-62.45,139.5-139.5,139.5s-139.5-62.45-139.5-139.5,62.45-139.5,139.5-139.5,139.5,62.45,139.5,139.5ZM1396.16,592.59c0-54.55-44.22-98.77-98.77-98.77s-98.77,44.22-98.77,98.77,44.22,98.77,98.77,98.77,98.77-44.22,98.77-98.77Z"></path>
    <path class="st0" d="M1745.43,581.97c-.18-52.19-46.02-87.4-95.44-83.11-50.17,4.36-82.12,43.66-81.93,93.01l.5,133.23-40.58.11.33-147.43c.11-51.05,33.55-94.95,81.17-111.88,41.82-14.86,87.19-10.47,124.09,14.35,32.39,21.78,52.56,57.87,52.66,97.17l.35,147.66-40.65.34-.49-143.45Z"></path>
  </g>
  <g>
    <path class="st2" d="M761.68,467l41.84-.47,34.95,64.83,3.23,5.84,84.81,152.61c5.26,9.9,15.16,9.73,21.46-.34l121.68-222.43,44.11.07-86.38,158.88-43.99,79.51c-9.06,16.37-22.96,28.09-41.05,29.37-17.56,1.24-37.98-5.51-47.32-22.45l-133.35-245.43Z"></path>
    <path class="st1" d="M979.61,352.41l-.02,89.63c0,12.67-8.23,23.16-18.5,28.7-15.68,8.46-9.23,22.13-13.49,33.01l-19.91.07c-2.75-12.91,2.17-25.31-13.25-33.15-9.59-4.88-18.18-14.86-18.23-26.77l-.38-90.61c-.02-4.24,4.5-9,7.9-9.29,5.08-.44,9.18,3.89,9.53,9.28l-.28,75.21c1.21,2.65,4.98,6.61,7.56,6.93,2.91.36,7.51-3.91,8.65-7l-.26-77.04c1.3-4.39,5.64-8.13,9.81-7.88,3.45.21,7.73,5.49,7.73,9.72l.1,74.91c0,3.22,5.78,7.7,8.7,7.36,4.29-.5,7.35-5.26,7.35-9.87l-.08-74.27c0-2.9,5.02-7.4,7.66-7.77,3.34-.48,9.41,3.54,9.41,8.83Z"></path>
  </g>
  <g>
    <path class="st0" d="M657.48,725.38l-.6-34.1c-28.37,27.69-64.36,40.45-103.68,39.39-72.01-1.94-130.46-57.75-134.52-129.22-4.53-79.9,55.25-144.72,134.58-147.51,79.78-2.8,145.15,59.49,144.99,139.87l-.27,131.32-40.5.24ZM657.15,592.57c0-54.59-44.25-98.84-98.84-98.84s-98.84,44.25-98.84,98.84,44.25,98.84,98.84,98.84,98.84-44.25,98.84-98.84Z"></path>
    <path class="st0" d="M173.81,592.91c.07,30.29,13.88,56.32,36.2,74.38,31.02,22.62,69.57,27.49,106.16,10.6l17.53,36.58c-36.28,16.82-74.5,18.54-111.24,5.49-52.64-18.7-89.32-67.8-89.38-124.5l-.2-187.3,40.66-.15.47,59.86,134.78-.15-.16,37.72-135,.09.19,87.38Z"></path>
  </g>
</svg>